<svg width="42" height="48" viewBox="0 0 42 48" fill="none" xmlns="http://www.w3.org/2000/svg">
<mask id="path-1-outside-1_76_7" maskUnits="userSpaceOnUse" x="1" y="4" width="36" height="18" fill="black">
<rect fill="white" x="1" y="4" width="36" height="18"/>
<path d="M7.17014 10.5552C7.17014 10.3086 7.13768 10.1268 7.07277 10.01C7.02084 9.89313 6.8975 9.72436 6.70277 9.50366V9.23103C6.96242 9.07524 7.38435 8.93892 7.96856 8.82208C8.55277 8.69225 9.06558 8.62734 9.50698 8.62734C10.221 8.62734 10.6949 8.6598 10.9286 8.72471C11.0065 8.85454 11.0454 9.10769 11.0454 9.48419C11.0454 9.86068 10.7598 11.1524 10.1886 13.3595C10.5261 13.4374 10.8766 13.4763 11.2401 13.4763C11.9542 13.4763 12.48 13.1193 12.8175 12.4052C13.168 11.6782 13.3433 10.8603 13.3433 9.95156C13.3433 8.2898 12.3047 7.45892 10.2275 7.45892C8.64365 7.45892 7.31294 7.71208 6.2354 8.21839C5.15785 8.71173 4.61908 9.32191 4.61908 10.0489C4.61908 10.6072 5.00855 10.9642 5.7875 11.12C5.80048 11.2238 5.80697 11.3472 5.80697 11.49C5.80697 12.204 5.69013 12.7428 5.45645 13.1063C4.84627 13.0284 4.29451 12.7688 3.80118 12.3274C3.30785 11.8859 3.06118 11.2238 3.06118 10.341C3.06118 8.97787 3.79469 7.90681 5.26171 7.12787C6.74171 6.33593 8.52681 5.93997 10.617 5.93997C12.7201 5.93997 14.317 6.26453 15.4075 6.91365C16.511 7.5498 17.0628 8.52348 17.0628 9.83471C17.0628 11.133 16.5824 12.2819 15.6217 13.2816C14.661 14.2812 13.3498 14.781 11.688 14.781C10.974 14.781 10.3768 14.6837 9.89646 14.4889C9.31225 16.7998 8.96821 18.5654 8.86435 19.7858C7.92961 20.0065 6.87803 20.1168 5.70961 20.1168C5.39803 20.1168 5.18382 20.0974 5.06697 20.0584C5.13189 19.2535 5.49539 17.6567 6.1575 15.2679C6.83259 12.8791 7.17014 11.3082 7.17014 10.5552ZM19.2553 20.2337C18.2426 20.2337 17.4442 19.9156 16.86 19.2795C16.2758 18.6303 15.9837 17.7216 15.9837 16.5532C15.9837 15.1251 16.4056 13.9177 17.2495 12.931C18.0933 11.9314 19.2033 11.4316 20.5795 11.4316L21.4558 11.5095C21.7674 11.4186 22.0595 11.3731 22.3321 11.3731C22.9812 11.3731 23.4421 11.5938 23.7147 12.0352C24.0004 12.4766 24.1626 13.1063 24.2016 13.9242C24.7468 13.8982 25.2661 13.8138 25.7595 13.671L26.0321 13.5931C26.123 13.684 26.1879 13.9567 26.2269 14.411L26.2463 14.6253C25.6621 14.9238 24.9481 15.1575 24.1042 15.3263C23.8186 16.7024 23.2539 17.8644 22.41 18.8121C21.5661 19.7598 20.5146 20.2337 19.2553 20.2337ZM19.6447 16.4753C19.6447 17.6826 19.9498 18.2863 20.56 18.2863C20.9884 18.2863 21.4233 18.0137 21.8647 17.4684C22.3191 16.9232 22.6307 16.261 22.7995 15.4821C21.4753 15.4821 20.8132 14.846 20.8132 13.5737C20.8132 13.353 20.8326 13.1258 20.8716 12.8921C20.7418 12.8921 20.6444 12.9116 20.5795 12.9505C20.3588 13.1842 20.1446 13.6581 19.9368 14.3721C19.7421 15.0731 19.6447 15.7742 19.6447 16.4753ZM31.6267 20.2337C30.8218 20.2337 30.3025 19.9221 30.0688 19.2989C29.0821 19.9221 28.1993 20.2337 27.4204 20.2337C26.6544 20.2337 26.0313 19.974 25.5509 19.4547C25.0835 18.9225 24.8498 18.0656 24.8498 16.8842C24.8498 15.3393 25.2393 14.0345 26.0183 12.97C26.8102 11.9054 27.8293 11.3731 29.0756 11.3731C29.6858 11.3731 30.296 11.5159 30.9062 11.8016C31.3865 9.60752 31.6267 8.03015 31.6267 7.06944C31.6267 6.78383 31.6072 6.49821 31.5683 6.2126C32.7757 5.87506 33.9376 5.70628 35.0541 5.70628C35.1579 5.87506 35.2099 6.27751 35.2099 6.91365C35.2099 7.53681 34.9113 9.22454 34.3141 11.9768C33.7299 14.7291 33.4378 16.5726 33.4378 17.5074C33.4378 18.0007 33.5221 18.2474 33.6909 18.2474L34.5283 17.9747L34.8788 18.9679C33.7364 19.8118 32.6523 20.2337 31.6267 20.2337ZM29.0756 18.2668C29.3093 18.2668 29.569 18.1889 29.8546 18.0332V18.0137C29.9065 16.9621 30.1597 15.3068 30.6141 13.0479C30.3544 12.97 30.1662 12.931 30.0493 12.931C29.7767 12.931 29.5365 13.0674 29.3288 13.34C29.1211 13.6126 28.9588 13.9631 28.842 14.3916C28.6213 15.2744 28.5109 16.1442 28.5109 17.001C28.5109 17.8449 28.6992 18.2668 29.0756 18.2668Z"/>
</mask>
<path d="M7.07277 10.01L5.87808 10.5409L5.90169 10.5941L5.92993 10.6449L7.07277 10.01ZM6.70277 9.50366H5.3954V9.99798L5.72245 10.3686L6.70277 9.50366ZM6.70277 9.23103L6.03013 8.10997L5.3954 8.49081V9.23103H6.70277ZM7.96856 8.82208L8.22495 10.1041L8.23859 10.1013L8.25217 10.0983L7.96856 8.82208ZM10.9286 8.72471L12.0496 8.05208L11.7812 7.60468L11.2785 7.46504L10.9286 8.72471ZM10.1886 13.3595L8.92291 13.0319L8.58654 14.3315L9.89459 14.6333L10.1886 13.3595ZM12.8175 12.4052L11.6399 11.8374L11.6356 11.8465L12.8175 12.4052ZM6.2354 8.21839L6.77965 9.40716L6.79138 9.40164L6.2354 8.21839ZM5.7875 11.12L7.08477 10.9578L6.96789 10.0228L6.0439 9.838L5.7875 11.12ZM5.45645 13.1063L5.29089 14.4031L6.10977 14.5077L6.55617 13.8133L5.45645 13.1063ZM3.80118 12.3274L4.67292 11.353L3.80118 12.3274ZM5.26171 7.12787L5.87482 8.28256L5.87851 8.28058L5.26171 7.12787ZM15.4075 6.91365L14.7388 8.03706L14.7467 8.04173L14.7546 8.0463L15.4075 6.91365ZM15.6217 13.2816L16.5644 14.1875L16.5644 14.1875L15.6217 13.2816ZM9.89646 14.4889L10.3876 13.2773L8.99681 12.7135L8.62897 14.1685L9.89646 14.4889ZM8.86435 19.7858L9.16477 21.0582L10.0867 20.8405L10.167 19.8967L8.86435 19.7858ZM5.06697 20.0584L3.76384 19.9533L3.68147 20.9747L4.65355 21.2987L5.06697 20.0584ZM6.1575 15.2679L4.8994 14.9123L4.89764 14.9187L6.1575 15.2679ZM8.4775 10.5552C8.4775 10.2451 8.44559 9.78904 8.21561 9.37506L5.92993 10.6449C5.8992 10.5896 5.88182 10.5439 5.87242 10.5151C5.86295 10.4861 5.8595 10.4677 5.85879 10.4637C5.85783 10.4584 5.86277 10.4851 5.86277 10.5552H8.4775ZM8.26745 9.47901C8.12671 9.16235 7.88144 8.86349 7.68308 8.63868L5.72245 10.3686C5.80308 10.46 5.85507 10.5251 5.88576 10.5671C5.90068 10.5875 5.90646 10.5969 5.90613 10.5964C5.90578 10.5958 5.90293 10.5911 5.89839 10.5827C5.89392 10.5744 5.88668 10.5603 5.87808 10.5409L8.26745 9.47901ZM8.01013 9.50366V9.23103H5.3954V9.50366H8.01013ZM7.3754 10.3521C7.43495 10.3164 7.67394 10.2143 8.22495 10.1041L7.71216 7.5401C7.09476 7.66359 6.48989 7.83412 6.03013 8.10997L7.3754 10.3521ZM8.25217 10.0983C8.77378 9.9824 9.18784 9.93471 9.50698 9.93471V7.31998C8.94331 7.31998 8.33176 7.40211 7.68495 7.54585L8.25217 10.0983ZM9.50698 9.93471C9.8474 9.93471 10.1121 9.94254 10.3086 9.95599C10.5242 9.97076 10.5935 9.9885 10.5787 9.98438L11.2785 7.46504C10.8452 7.34468 10.1923 7.31998 9.50698 7.31998V9.93471ZM9.80751 9.39734C9.78174 9.35439 9.7641 9.31731 9.75241 9.28976C9.74067 9.26207 9.73339 9.24036 9.72922 9.2267C9.72136 9.20093 9.72133 9.19313 9.72404 9.21074C9.72656 9.22717 9.73028 9.25784 9.73323 9.30566C9.73616 9.35295 9.73804 9.41202 9.73804 9.48419H12.3528C12.3528 9.25724 12.3415 9.02826 12.3084 8.81316C12.2785 8.61888 12.2159 8.32926 12.0496 8.05208L9.80751 9.39734ZM9.73804 9.48419C9.73804 9.45825 9.73795 9.51482 9.70324 9.71755C9.67245 9.89737 9.62375 10.1407 9.55466 10.4531C9.41676 11.0768 9.20697 11.9344 8.92291 13.0319L11.4542 13.687C11.7414 12.5775 11.96 11.6857 12.1077 11.0176C12.2416 10.412 12.3528 9.84421 12.3528 9.48419H9.73804ZM9.89459 14.6333C10.3332 14.7346 10.7826 14.7837 11.2401 14.7837V12.1689C10.9707 12.1689 10.719 12.1402 10.4825 12.0856L9.89459 14.6333ZM11.2401 14.7837C11.8255 14.7837 12.3987 14.6335 12.9044 14.2901C13.4023 13.9521 13.7549 13.4813 13.9995 12.964L11.6356 11.8465C11.5426 12.0432 11.4636 12.108 11.4356 12.1269C11.4156 12.1406 11.3688 12.1689 11.2401 12.1689V14.7837ZM13.9951 12.973C14.4413 12.0478 14.6507 11.032 14.6507 9.95156H12.0359C12.0359 10.6886 11.8948 11.3087 11.6399 11.8375L13.9951 12.973ZM14.6507 9.95156C14.6507 8.83213 14.2864 7.78547 13.3811 7.0612C12.5314 6.38149 11.4058 6.15155 10.2275 6.15155V8.76628C11.1264 8.76628 11.5587 8.95178 11.7477 9.10296C11.8809 9.20957 12.0359 9.40922 12.0359 9.95156H14.6507ZM10.2275 6.15155C8.51194 6.15155 6.97841 6.42477 5.67941 7.03514L6.79138 9.40164C7.64747 8.99938 8.77535 8.76628 10.2275 8.76628V6.15155ZM5.69117 7.02969C4.46906 7.58921 3.31171 8.53312 3.31171 10.0489H5.92644C5.92644 10.0428 5.91764 10.0082 6.00316 9.91135C6.1094 9.79104 6.33745 9.60954 6.77962 9.4071L5.69117 7.02969ZM3.31171 10.0489C3.31171 10.6711 3.54613 11.2576 4.02776 11.6991C4.46581 12.1006 5.01698 12.2991 5.53111 12.402L6.0439 9.838C5.92015 9.81325 5.84345 9.78658 5.80173 9.76827C5.76062 9.75023 5.76691 9.74626 5.7946 9.77164C5.82604 9.80046 5.8662 9.85012 5.89508 9.91797C5.92324 9.98414 5.92644 10.0341 5.92644 10.0489H3.31171ZM4.49023 11.2821C4.49457 11.3169 4.49961 11.3833 4.49961 11.49H7.11434C7.11434 11.311 7.10639 11.1308 7.08477 10.9578L4.49023 11.2821ZM4.49961 11.49C4.49961 12.1003 4.39276 12.3433 4.35672 12.3993L6.55617 13.8133C6.98751 13.1423 7.11434 12.3077 7.11434 11.49H4.49961ZM5.622 11.8095C5.29472 11.7677 4.98475 11.6321 4.67292 11.353L2.92944 13.3017C3.60428 13.9055 4.39782 14.2891 5.29089 14.4031L5.622 11.8095ZM4.67292 11.353C4.54107 11.2351 4.36854 10.9824 4.36854 10.341H1.75381C1.75381 11.4653 2.07463 12.5368 2.92944 13.3017L4.67292 11.353ZM4.36854 10.341C4.36854 9.57587 4.72358 8.89383 5.87482 8.28255L4.6486 5.97318C2.86579 6.9198 1.75381 8.37987 1.75381 10.341H4.36854ZM5.87851 8.28058C7.12777 7.61212 8.69012 7.24733 10.617 7.24733V4.6326C8.36349 4.6326 6.35566 5.05975 4.64491 5.97515L5.87851 8.28058ZM10.617 7.24733C12.6226 7.24733 13.943 7.56336 14.7388 8.03706L16.0762 5.79025C14.691 4.9657 12.8177 4.6326 10.617 4.6326V7.24733ZM14.7546 8.0463C15.4387 8.44065 15.7554 8.97387 15.7554 9.83471H18.3702C18.3702 8.07309 17.5834 6.65894 16.0605 5.78101L14.7546 8.0463ZM15.7554 9.83471C15.7554 10.7708 15.4233 11.6013 14.6791 12.3757L16.5644 14.1875C17.7416 12.9625 18.3702 11.4952 18.3702 9.83471H15.7554ZM14.6791 12.3757C14.0131 13.0687 13.0702 13.4737 11.688 13.4737V16.0884C13.6294 16.0884 15.309 15.4937 16.5644 14.1875L14.6791 12.3757ZM11.688 13.4737C11.083 13.4737 10.6651 13.3898 10.3876 13.2773L9.40527 15.7005C10.0886 15.9775 10.865 16.0884 11.688 16.0884V13.4737ZM8.62897 14.1685C8.04039 16.4967 7.67483 18.3456 7.5617 19.6749L10.167 19.8967C10.2616 18.7853 10.5841 17.103 11.1639 14.8094L8.62897 14.1685ZM8.56393 18.5134C7.74612 18.7065 6.79781 18.8095 5.70961 18.8095V21.4242C6.95825 21.4242 8.1131 21.3065 9.16477 21.0582L8.56393 18.5134ZM5.70961 18.8095C5.5775 18.8095 5.48826 18.8052 5.43363 18.8002C5.40703 18.7978 5.39707 18.796 5.40006 18.7965C5.40076 18.7966 5.43139 18.8018 5.4804 18.8181L4.65355 21.2987C4.9958 21.4128 5.40822 21.4242 5.70961 21.4242V18.8095ZM6.37011 20.1635C6.42328 19.5041 6.749 18.0284 7.41737 15.6171L4.89764 14.9187C4.24179 17.2849 3.84049 19.0029 3.76384 19.9533L6.37011 20.1635ZM7.41559 15.6234C7.75711 14.415 8.01832 13.3958 8.19517 12.5728C8.36663 11.7748 8.4775 11.0792 8.4775 10.5552H5.86277C5.86277 10.7843 5.80487 11.2506 5.63879 12.0235C5.47809 12.7714 5.23299 13.732 4.89941 14.9123L7.41559 15.6234ZM16.86 19.2795L15.8882 20.1541L15.8971 20.1638L16.86 19.2795ZM17.2495 12.931L18.243 13.7808L18.2485 13.7744L17.2495 12.931ZM20.5795 11.4316L20.6952 10.1293L20.6375 10.1242H20.5795V11.4316ZM21.4558 11.5095L21.34 12.8117L21.5854 12.8335L21.8219 12.7645L21.4558 11.5095ZM23.7147 12.0352L22.6024 12.7223L22.6097 12.7339L22.6171 12.7455L23.7147 12.0352ZM24.2016 13.9242L22.8957 13.9864L22.9579 15.2923L24.2638 15.2301L24.2016 13.9242ZM25.7595 13.671L25.4003 12.414L25.396 12.4152L25.7595 13.671ZM26.0321 13.5931L26.9566 12.6687L26.4126 12.1248L25.673 12.3361L26.0321 13.5931ZM26.2269 14.411L24.9242 14.5227L24.9249 14.5294L26.2269 14.411ZM26.2463 14.6253L26.8413 15.7894L27.6283 15.3871L27.5483 14.5069L26.2463 14.6253ZM24.1042 15.3263L23.8478 14.0443L22.9999 14.2139L22.8241 15.0606L24.1042 15.3263ZM22.41 18.8121L21.4336 17.9427L21.4336 17.9427L22.41 18.8121ZM21.8647 17.4684L20.8604 16.6315L20.8544 16.6386L20.8486 16.6458L21.8647 17.4684ZM22.7995 15.4821L24.0772 15.7589L24.4204 14.1747H22.7995V15.4821ZM20.8716 12.8921L22.1612 13.107L22.4149 11.5847H20.8716V12.8921ZM20.5795 12.9505L19.9068 11.8295L19.7525 11.922L19.629 12.0528L20.5795 12.9505ZM19.9368 14.3721L18.6815 14.0069L18.6793 14.0145L18.6772 14.0222L19.9368 14.3721ZM19.2553 18.9263C18.5397 18.9263 18.1164 18.7148 17.8229 18.3952L15.8971 20.1638C16.772 21.1165 17.9456 21.541 19.2553 21.541V18.9263ZM17.8317 18.4049C17.5278 18.0671 17.291 17.5095 17.291 16.5532H14.6763C14.6763 17.9337 15.0238 19.1936 15.8882 20.1541L17.8317 18.4049ZM17.291 16.5532C17.291 15.4032 17.6224 14.5064 18.243 13.7808L16.2559 12.0813C15.1888 13.329 14.6763 14.8469 14.6763 16.5532H17.291ZM18.2485 13.7744C18.8295 13.086 19.5655 12.7389 20.5795 12.7389V10.1242C18.8411 10.1242 17.3571 10.7768 16.2505 12.0877L18.2485 13.7744ZM20.4637 12.7338L21.34 12.8117L21.5715 10.2072L20.6952 10.1293L20.4637 12.7338ZM21.8219 12.7645C22.0364 12.7019 22.2043 12.6805 22.3321 12.6805V10.0658C21.9147 10.0658 21.4983 10.1352 21.0897 10.2544L21.8219 12.7645ZM22.3321 12.6805C22.5124 12.6805 22.5868 12.7115 22.6 12.7178C22.6058 12.7206 22.6037 12.7203 22.599 12.716C22.5944 12.7119 22.596 12.7118 22.6024 12.7223L24.827 11.3482C24.2547 10.4216 23.3036 10.0658 22.3321 10.0658V12.6805ZM22.6171 12.7455C22.726 12.9138 22.8621 13.2818 22.8957 13.9864L25.5075 13.862C25.4631 12.9308 25.2747 12.0395 24.8124 11.325L22.6171 12.7455ZM24.2638 15.2301C24.9047 15.1996 25.5256 15.0998 26.123 14.9268L25.396 12.4152C25.0067 12.5279 24.589 12.5969 24.1394 12.6183L24.2638 15.2301ZM26.1186 14.9281L26.3913 14.8502L25.673 12.3361L25.4003 12.414L26.1186 14.9281ZM25.1077 14.5176C25.0328 14.4427 24.9834 14.3724 24.9534 14.3239C24.9228 14.2745 24.904 14.2343 24.8937 14.2104C24.8745 14.1655 24.8717 14.1457 24.8771 14.1686C24.8818 14.188 24.8896 14.2266 24.8985 14.2892C24.9073 14.3508 24.9161 14.428 24.9243 14.5227L27.5294 14.2994C27.5074 14.0424 27.4745 13.7887 27.4208 13.563C27.3842 13.4095 27.2822 12.9943 26.9566 12.6687L25.1077 14.5176ZM24.9249 14.5294L24.9443 14.7436L27.5483 14.5069L27.5288 14.2927L24.9249 14.5294ZM25.6513 13.4611C25.2013 13.6911 24.6083 13.8922 23.8478 14.0443L24.3606 16.6083C25.2878 16.4228 26.1229 16.1566 26.8413 15.7894L25.6513 13.4611ZM22.8241 15.0606C22.58 16.2371 22.1091 17.1841 21.4336 17.9427L23.3864 19.6815C24.3986 18.5447 25.0573 17.1678 25.3843 15.592L22.8241 15.0606ZM21.4336 17.9427C20.8356 18.6143 20.1382 18.9263 19.2553 18.9263V21.541C20.8909 21.541 22.2966 20.9054 23.3864 19.6815L21.4336 17.9427ZM18.3374 16.4753C18.3374 17.1468 18.4152 17.8464 18.7067 18.4232C18.8619 18.7303 19.0955 19.0374 19.4397 19.2645C19.7915 19.4965 20.1815 19.5937 20.56 19.5937V16.9789C20.6334 16.9789 20.7564 17.0007 20.8794 17.0818C20.9948 17.1579 21.0377 17.2386 21.0404 17.2439C21.0414 17.2459 21.0347 17.233 21.0246 17.1995C21.0144 17.1662 21.0024 17.1175 20.9911 17.0504C20.9682 16.9141 20.9521 16.7256 20.9521 16.4753H18.3374ZM20.56 19.5937C21.5775 19.5937 22.3472 18.9502 22.8809 18.291L20.8486 16.6458C20.6877 16.8445 20.5727 16.9368 20.5131 16.9741C20.4622 17.0061 20.4837 16.9789 20.56 16.9789V19.5937ZM22.8691 18.3054C23.4743 17.5791 23.8693 16.7182 24.0772 15.7589L21.5218 15.2053C21.3921 15.8038 21.164 16.2672 20.8604 16.6315L22.8691 18.3054ZM22.7995 14.1747C22.5691 14.1747 22.4193 14.1466 22.3292 14.1177C22.2449 14.0907 22.2189 14.0655 22.2155 14.0622C22.2133 14.0601 22.1944 14.0435 22.1724 13.9801C22.1481 13.9098 22.1205 13.7821 22.1205 13.5737H19.5058C19.5058 14.4249 19.7301 15.3003 20.404 15.9477C21.0681 16.5858 21.9486 16.7895 22.7995 16.7895V14.1747ZM22.1205 13.5737C22.1205 13.43 22.1332 13.2748 22.1612 13.107L19.582 12.6772C19.5321 12.9767 19.5058 13.2759 19.5058 13.5737H22.1205ZM20.8716 11.5847C20.6537 11.5847 20.2729 11.6098 19.9068 11.8295L21.2521 14.0716C21.123 14.149 21.0126 14.1777 20.9576 14.1887C20.9277 14.1946 20.9052 14.1972 20.8919 14.1983C20.8851 14.1989 20.8799 14.1992 20.8767 14.1993C20.8734 14.1995 20.8716 14.1995 20.8716 14.1995V11.5847ZM19.629 12.0528C19.1718 12.537 18.89 13.2902 18.6815 14.0069L21.1922 14.7373C21.2855 14.4166 21.3711 14.1822 21.4446 14.0197C21.5241 13.8438 21.5616 13.8147 21.5299 13.8482L19.629 12.0528ZM18.6772 14.0222C18.452 14.8328 18.3374 15.6515 18.3374 16.4753H20.9521C20.9521 15.8969 21.0322 15.3134 21.1965 14.722L18.6772 14.0222ZM30.0688 19.2989L31.2929 18.8399L30.7289 17.3358L29.3707 18.1936L30.0688 19.2989ZM25.5509 19.4547L24.5685 20.3173L24.5797 20.3301L24.5912 20.3425L25.5509 19.4547ZM26.0183 12.97L24.9693 12.1896L24.9632 12.198L26.0183 12.97ZM30.9062 11.8016L30.3519 12.9856L31.8334 13.6791L32.1833 12.0812L30.9062 11.8016ZM31.5683 6.2126L31.2163 4.95352L30.119 5.26029L30.2729 6.38924L31.5683 6.2126ZM35.0541 5.70628L36.1675 5.0211L35.7846 4.39892H35.0541V5.70628ZM34.3141 11.9768L33.0364 11.6996L33.0352 11.7054L34.3141 11.9768ZM33.6909 18.2474V19.5547H33.8984L34.0957 19.4905L33.6909 18.2474ZM34.5283 17.9747L35.7611 17.5396L35.3366 16.3367L34.1235 16.7316L34.5283 17.9747ZM34.8788 18.9679L35.6556 20.0195L36.4336 19.4448L36.1116 18.5328L34.8788 18.9679ZM29.8546 18.0332L30.4806 19.1809L31.162 18.8092V18.0332H29.8546ZM29.8546 18.0137L28.5488 17.9492L28.5472 17.9814V18.0137H29.8546ZM30.6141 13.0479L31.8958 13.3057L32.1307 12.1379L30.9897 11.7957L30.6141 13.0479ZM29.3288 13.34L28.2889 12.5477L28.2889 12.5477L29.3288 13.34ZM28.842 14.3916L27.5807 14.0476L27.577 14.061L27.5736 14.0745L28.842 14.3916ZM31.6267 18.9263C31.3855 18.9263 31.3063 18.879 31.3062 18.8789C31.3055 18.8785 31.3072 18.8795 31.3101 18.882C31.3129 18.8845 31.3149 18.8868 31.3157 18.8877C31.3181 18.8907 31.3077 18.8792 31.2929 18.8399L28.8447 19.758C29.0544 20.3171 29.4225 20.798 29.9609 21.1211C30.4801 21.4326 31.063 21.541 31.6267 21.541V18.9263ZM29.3707 18.1936C28.4958 18.7462 27.8581 18.9263 27.4204 18.9263V21.541C28.5406 21.541 29.6685 21.0981 30.7669 20.4043L29.3707 18.1936ZM27.4204 18.9263C26.9851 18.9263 26.7215 18.795 26.5106 18.567L24.5912 20.3425C25.341 21.1531 26.3237 21.541 27.4204 21.541V18.9263ZM26.5333 18.5921C26.3764 18.4134 26.1572 17.9449 26.1572 16.8842H23.5425C23.5425 18.1863 23.7907 19.4315 24.5685 20.3173L26.5333 18.5921ZM26.1572 16.8842C26.1572 15.5678 26.4851 14.5459 27.0734 13.742L24.9632 12.198C23.9935 13.5232 23.5425 15.1108 23.5425 16.8842H26.1572ZM27.0672 13.7503C27.6311 12.9924 28.2728 12.6805 29.0756 12.6805V10.0658C27.3858 10.0658 25.9893 10.8185 24.9693 12.1897L27.0672 13.7503ZM29.0756 12.6805C29.4751 12.6805 29.897 12.7727 30.3519 12.9856L31.4604 10.6175C30.695 10.2592 29.8965 10.0658 29.0756 10.0658V12.6805ZM32.1833 12.0812C32.6643 9.88435 32.9341 8.18491 32.9341 7.06944H30.3193C30.3193 7.87539 30.1088 9.33069 29.6291 11.522L32.1833 12.0812ZM32.9341 7.06944C32.9341 6.7242 32.9105 6.37957 32.8637 6.03596L30.2729 6.38924C30.3039 6.61686 30.3193 6.84346 30.3193 7.06944H32.9341ZM31.9203 7.47169C33.0269 7.16231 34.0701 7.01365 35.0541 7.01365V4.39892C33.805 4.39892 32.5244 4.5878 31.2163 4.95352L31.9203 7.47169ZM33.9407 6.39147C33.9067 6.33628 33.8869 6.29156 33.8767 6.26607C33.8662 6.23984 33.8617 6.22343 33.8609 6.22067C33.86 6.21728 33.8664 6.24085 33.8743 6.30201C33.8903 6.42587 33.9025 6.62397 33.9025 6.91365H36.5172C36.5172 6.56719 36.5035 6.24599 36.4675 5.9674C36.4376 5.73515 36.3735 5.35585 36.1675 5.0211L33.9407 6.39147ZM33.9025 6.91365C33.9025 7.09395 33.8499 7.56339 33.6986 8.41905C33.5534 9.23929 33.3334 10.3309 33.0364 11.6996L35.5917 12.254C35.8919 10.8704 36.1198 9.74206 36.2733 8.87458C36.4205 8.04251 36.5172 7.35651 36.5172 6.91365H33.9025ZM33.0352 11.7054C32.456 14.4343 32.1304 16.4124 32.1304 17.5074H34.7451C34.7451 16.7329 35.0038 15.024 35.593 12.2483L33.0352 11.7054ZM32.1304 17.5074C32.1304 17.7935 32.1505 18.1535 32.2641 18.4855C32.3711 18.7985 32.758 19.5547 33.6909 19.5547V16.94C34.007 16.94 34.2928 17.0701 34.4925 17.2647C34.661 17.4289 34.7218 17.5918 34.738 17.6392C34.7672 17.7245 34.7451 17.7146 34.7451 17.5074H32.1304ZM34.0957 19.4905L34.933 19.2179L34.1235 16.7316L33.2862 17.0042L34.0957 19.4905ZM33.2955 18.4098L33.646 19.403L36.1116 18.5328L35.7611 17.5396L33.2955 18.4098ZM34.1021 17.9163C33.0999 18.6566 32.2832 18.9263 31.6267 18.9263V21.541C33.0215 21.541 34.3728 20.967 35.6556 20.0195L34.1021 17.9163ZM29.0756 19.5742C29.5971 19.5742 30.0744 19.4025 30.4806 19.1809L29.2286 16.8854C29.1501 16.9282 29.0977 16.9479 29.07 16.9562C29.043 16.9643 29.0468 16.9595 29.0756 16.9595V19.5742ZM31.162 18.0332V18.0137H28.5472V18.0332H31.162ZM31.1604 18.0782C31.2071 17.1311 31.4428 15.5575 31.8958 13.3057L29.3324 12.7901C28.8766 15.0562 28.6059 16.7931 28.5488 17.9492L31.1604 18.0782ZM30.9897 11.7957C30.7261 11.7165 30.3757 11.6237 30.0493 11.6237V14.2384C30.0091 14.2384 29.9855 14.2353 29.9848 14.2352C29.9826 14.2349 29.9914 14.236 30.0133 14.2405C30.0584 14.2498 30.1316 14.2681 30.2384 14.3001L30.9897 11.7957ZM30.0493 11.6237C29.2653 11.6237 28.6737 12.0426 28.2889 12.5477L30.3687 14.1323C30.3907 14.1035 30.3756 14.1331 30.31 14.1703C30.2361 14.2123 30.1423 14.2384 30.0493 14.2384V11.6237ZM28.2889 12.5477C27.954 12.9873 27.7293 13.5026 27.5807 14.0476L30.1033 14.7356C30.1883 14.4237 30.2882 14.238 30.3687 14.1323L28.2889 12.5477ZM27.5736 14.0745C27.3286 15.0546 27.2035 16.0309 27.2035 17.001H29.8183C29.8183 16.2575 29.9139 15.4942 30.1103 14.7086L27.5736 14.0745ZM27.2035 17.001C27.2035 17.4796 27.2507 18.0181 27.4582 18.4831C27.5688 18.731 27.7495 19.0135 28.0461 19.2351C28.3585 19.4685 28.7199 19.5742 29.0756 19.5742V16.9595C29.2431 16.9595 29.4399 17.0125 29.6111 17.1404C29.7664 17.2565 29.8295 17.3808 29.846 17.4177C29.8619 17.4533 29.8516 17.4448 29.8393 17.3625C29.8277 17.2843 29.8183 17.1666 29.8183 17.001H27.2035Z" fill="url(#paint0_linear_76_7)" mask="url(#path-1-outside-1_76_7)"/>
<mask id="path-3-outside-2_76_7" maskUnits="userSpaceOnUse" x="10.6932" y="22.9849" width="29" height="18" fill="black">
<rect fill="white" x="10.6932" y="22.9849" width="29" height="18"/>
<path d="M19.4729 39.3743C18.642 39.3743 17.9474 39.1796 17.3892 38.7901C16.8439 38.3877 16.5713 37.8424 16.5713 37.1543C16.5713 36.4533 16.8309 35.8756 17.3502 35.4212C17.8825 34.9668 18.5446 34.6227 19.3365 34.3891C19.0639 33.9087 18.5771 33.1363 17.876 32.0717C17.3957 32.1626 16.9737 32.208 16.6102 32.208C15.4418 32.208 14.5265 31.9159 13.8644 31.3317C13.2023 30.7475 12.8713 29.962 12.8713 28.9754C12.8713 28.4561 12.9427 27.9822 13.0855 27.5538L13.1634 27.3201C13.8644 27.3331 14.4032 27.411 14.7797 27.5538C14.559 28.0341 14.4486 28.534 14.4486 29.0533C14.4486 29.5596 14.6499 29.988 15.0523 30.3385C15.4678 30.6761 15.9611 30.8448 16.5323 30.8448C16.7271 30.8448 16.9218 30.8254 17.1165 30.7864C16.5842 29.8127 16.3181 28.9883 16.3181 28.3133C16.3181 27.3396 16.7465 26.5736 17.6034 26.0154C18.4732 25.4441 19.4534 25.1585 20.5439 25.1585C21.6474 25.1585 22.4978 25.3922 23.095 25.8596C23.6922 26.314 23.9908 26.8852 23.9908 27.5733C23.9908 28.2483 23.7441 28.878 23.2508 29.4622C22.7574 30.0334 22.2057 30.5008 21.5955 30.8643C22.3874 31.9159 22.9651 32.9999 23.3287 34.1164C24.2504 34.1554 25.4058 34.3826 26.795 34.798C26.756 35.4082 26.5094 36.0249 26.055 36.648C25.3929 36.1547 24.575 35.8301 23.6013 35.6743C23.5883 36.687 23.1664 37.5568 22.3355 38.2838C21.5046 39.0108 20.5504 39.3743 19.4729 39.3743ZM20.7776 29.618C21.18 29.4362 21.5111 29.1636 21.7708 28.8001C22.0434 28.4236 22.1797 28.0601 22.1797 27.7096C22.1797 27.359 22.0629 27.0994 21.8292 26.9306C21.5955 26.7489 21.2969 26.658 20.9334 26.658C20.5699 26.658 20.2713 26.7489 20.0376 26.9306C19.8039 27.0994 19.6871 27.3266 19.6871 27.6122C19.6871 28.0406 20.0506 28.7092 20.7776 29.618ZM19.1029 37.7385C19.3625 37.7385 19.5702 37.5957 19.726 37.3101C19.8948 37.0245 19.9792 36.7389 19.9792 36.4533C19.9792 36.1677 19.9402 35.8691 19.8623 35.5575C18.8107 35.7392 18.285 36.1612 18.285 36.8233C18.285 37.0699 18.3564 37.2842 18.4992 37.4659C18.655 37.6477 18.8562 37.7385 19.1029 37.7385ZM28.3879 29.5401C28.3879 29.2934 28.3554 29.1117 28.2905 28.9948C28.2386 28.878 28.1152 28.7092 27.9205 28.4885V28.2159C28.1801 28.0601 28.6021 27.9238 29.1863 27.8069C29.7705 27.6771 30.2833 27.6122 30.7247 27.6122C31.4387 27.6122 31.9126 27.6447 32.1463 27.7096C32.2242 27.8394 32.2631 28.0926 32.2631 28.469C32.2631 28.8455 31.9775 30.1373 31.4063 32.3443C31.7438 32.4222 32.0944 32.4612 32.4579 32.4612C33.1719 32.4612 33.6977 32.1041 34.0352 31.3901C34.3858 30.6631 34.561 29.8452 34.561 28.9364C34.561 27.2747 33.5224 26.4438 31.4452 26.4438C29.8614 26.4438 28.5307 26.6969 27.4531 27.2033C26.3756 27.6966 25.8368 28.3068 25.8368 29.0338C25.8368 29.592 26.2263 29.9491 27.0052 30.1048C27.0182 30.2087 27.0247 30.332 27.0247 30.4748C27.0247 31.1889 26.9079 31.7277 26.6742 32.0912C26.064 32.0133 25.5122 31.7536 25.0189 31.3122C24.5256 30.8708 24.2789 30.2087 24.2789 29.3259C24.2789 27.9627 25.0124 26.8917 26.4794 26.1127C27.9594 25.3208 29.7445 24.9248 31.8347 24.9248C33.9379 24.9248 35.5347 25.2494 36.6253 25.8985C37.7288 26.5347 38.2805 27.5083 38.2805 28.8196C38.2805 30.1178 37.8002 31.2668 36.8395 32.2664C35.8788 33.2661 34.5675 33.7659 32.9058 33.7659C32.1917 33.7659 31.5945 33.6685 31.1142 33.4738C30.53 35.7847 30.1859 37.5503 30.0821 38.7707C29.1473 38.9914 28.0958 39.1017 26.9273 39.1017C26.6158 39.1017 26.4015 39.0822 26.2847 39.0433C26.3496 38.2384 26.7131 36.6415 27.3752 34.2527C28.0503 31.864 28.3879 30.2931 28.3879 29.5401Z"/>
</mask>
<path d="M17.3892 38.7901L16.6128 39.842L16.6268 39.8524L16.6411 39.8623L17.3892 38.7901ZM17.3502 35.4212L16.5014 34.4268L16.4953 34.432L16.4893 34.4373L17.3502 35.4212ZM19.3365 34.3891L19.7065 35.643L21.2868 35.1767L20.4735 33.7437L19.3365 34.3891ZM17.876 32.0717L18.9679 31.3527L18.4888 30.6252L17.633 30.7871L17.876 32.0717ZM13.8644 31.3317L12.9994 32.312L12.9994 32.312L13.8644 31.3317ZM13.0855 27.5538L14.3257 27.9672L14.3257 27.9672L13.0855 27.5538ZM13.1634 27.3201L13.1876 26.013L12.2269 25.9952L11.9231 26.9067L13.1634 27.3201ZM14.7797 27.5538L15.9677 28.0996L16.552 26.8278L15.2433 26.3314L14.7797 27.5538ZM15.0523 30.3385L14.1937 31.3244L14.2105 31.3391L14.2279 31.3532L15.0523 30.3385ZM17.1165 30.7864L17.3729 32.0684L19.1167 31.7197L18.2637 30.1593L17.1165 30.7864ZM17.6034 26.0154L18.317 27.1108L18.321 27.1081L17.6034 26.0154ZM23.095 25.8596L22.2892 26.8891L22.2962 26.8946L22.3033 26.9L23.095 25.8596ZM23.2508 29.4622L24.2402 30.3167L24.2449 30.3112L24.2496 30.3057L23.2508 29.4622ZM21.5955 30.8643L20.9264 29.7412L19.6746 30.4869L20.5511 31.6508L21.5955 30.8643ZM23.3287 34.1164L22.0855 34.5212L22.3665 35.3843L23.2735 35.4226L23.3287 34.1164ZM26.795 34.798L28.0997 34.8813L28.1659 33.8434L27.1696 33.5455L26.795 34.798ZM26.055 36.648L25.2738 37.6964L26.3331 38.4856L27.1113 37.4183L26.055 36.648ZM23.6013 35.6743L23.8078 34.3834L22.3134 34.1443L22.294 35.6576L23.6013 35.6743ZM22.3355 38.2838L23.1964 39.2677L23.1964 39.2677L22.3355 38.2838ZM20.7776 29.618L19.7567 30.4347L20.3907 31.2272L21.3157 30.8095L20.7776 29.618ZM21.7708 28.8001L20.7118 28.0333L20.7069 28.0402L21.7708 28.8001ZM21.8292 26.9306L21.0265 27.9626L21.0449 27.9769L21.0637 27.9905L21.8292 26.9306ZM20.0376 26.9306L20.803 27.9905L20.8219 27.9769L20.8402 27.9626L20.0376 26.9306ZM19.726 37.3101L18.6005 36.645L18.589 36.6644L18.5783 36.6841L19.726 37.3101ZM19.8623 35.5575L21.1307 35.2404L20.8362 34.0624L19.6397 34.2692L19.8623 35.5575ZM18.4992 37.4659L17.4712 38.2736L17.4884 38.2956L17.5065 38.3167L18.4992 37.4659ZM19.4729 38.067C18.8496 38.067 18.4316 37.9233 18.1372 37.7179L16.6411 39.8623C17.4632 40.4359 18.4343 40.6817 19.4729 40.6817V38.067ZM18.1655 37.7383C17.9602 37.5867 17.8786 37.4349 17.8786 37.1543H15.2639C15.2639 38.2499 15.7276 39.1886 16.6128 39.842L18.1655 37.7383ZM17.8786 37.1543C17.8786 36.8234 17.9807 36.6067 18.2111 36.4051L16.4893 34.4373C15.6811 35.1444 15.2639 36.0832 15.2639 37.1543H17.8786ZM18.199 36.4155C18.5689 36.0998 19.0594 35.8339 19.7065 35.643L18.9665 33.1352C18.0298 33.4116 17.1961 33.8338 16.5014 34.4268L18.199 36.4155ZM20.4735 33.7437C20.1776 33.2224 19.6698 32.4185 18.9679 31.3527L16.7841 32.7907C17.4844 33.854 17.9502 34.595 18.1995 35.0344L20.4735 33.7437ZM17.633 30.7871C17.2073 30.8676 16.8698 30.9006 16.6102 30.9006V33.5154C17.0776 33.5154 17.584 33.4575 18.119 33.3563L17.633 30.7871ZM16.6102 30.9006C15.6556 30.9006 15.0843 30.6646 14.7294 30.3514L12.9994 32.312C13.9687 33.1672 15.228 33.5154 16.6102 33.5154V30.9006ZM14.7294 30.3514C14.3834 30.0461 14.1786 29.6361 14.1786 28.9754H11.5639C11.5639 30.288 12.0212 31.4488 12.9994 32.312L14.7294 30.3514ZM14.1786 28.9754C14.1786 28.5759 14.2335 28.244 14.3257 27.9672L11.8452 27.1404C11.6519 27.7204 11.5639 28.3362 11.5639 28.9754H14.1786ZM14.3257 27.9672L14.4036 27.7335L11.9231 26.9067L11.8452 27.1404L14.3257 27.9672ZM13.1392 28.6272C13.7842 28.6392 14.1472 28.7121 14.316 28.7762L15.2433 26.3314C14.6592 26.1098 13.9447 26.027 13.1876 26.013L13.1392 28.6272ZM13.5917 27.008C13.2938 27.6564 13.1413 28.3421 13.1413 29.0533H15.756C15.756 28.7258 15.8242 28.4119 15.9677 28.0996L13.5917 27.008ZM13.1413 29.0533C13.1413 29.9603 13.5237 30.7408 14.1937 31.3244L15.911 29.3527C15.776 29.2352 15.756 29.1589 15.756 29.0533H13.1413ZM14.2279 31.3532C14.8927 31.8933 15.6825 32.1522 16.5323 32.1522V29.5375C16.2397 29.5375 16.0428 29.4588 15.8767 29.3239L14.2279 31.3532ZM16.5323 32.1522C16.8148 32.1522 17.0954 32.1239 17.3729 32.0684L16.8601 29.5044C16.7481 29.5268 16.6393 29.5375 16.5323 29.5375V32.1522ZM18.2637 30.1593C17.7764 29.268 17.6255 28.6711 17.6255 28.3133H15.0107C15.0107 29.3056 15.3921 30.3575 15.9694 31.4135L18.2637 30.1593ZM17.6255 28.3133C17.6255 27.8076 17.8082 27.4423 18.317 27.1108L16.8897 24.92C15.6849 25.7049 15.0107 26.8715 15.0107 28.3133H17.6255ZM18.321 27.1081C18.9672 26.6838 19.6955 26.4659 20.5439 26.4659V23.8512C19.2112 23.8512 17.9792 24.2044 16.8857 24.9226L18.321 27.1081ZM20.5439 26.4659C21.4839 26.4659 22.0061 26.6675 22.2892 26.8891L23.9007 24.83C22.9895 24.1169 21.811 23.8512 20.5439 23.8512V26.4659ZM22.3033 26.9C22.6095 27.133 22.6834 27.3344 22.6834 27.5733H25.2981C25.2981 26.436 24.7748 25.4949 23.8866 24.8191L22.3033 26.9ZM22.6834 27.5733C22.6834 27.8987 22.5741 28.2372 22.2519 28.6187L24.2496 30.3057C24.9141 29.5188 25.2981 28.598 25.2981 27.5733H22.6834ZM22.2613 28.6077C21.8539 29.0794 21.4087 29.4538 20.9264 29.7412L22.2646 31.9875C23.0026 31.5478 23.661 30.9874 24.2402 30.3167L22.2613 28.6077ZM20.5511 31.6508C21.2666 32.6008 21.7718 33.5576 22.0855 34.5212L24.5718 33.7117C24.1585 32.4423 23.5082 31.231 22.6398 30.0778L20.5511 31.6508ZM23.2735 35.4226C24.0437 35.4552 25.0832 35.6507 26.4204 36.0506L27.1696 33.5455C25.7285 33.1145 24.4571 32.8556 23.3838 32.8102L23.2735 35.4226ZM25.4903 34.7147C25.4708 35.0196 25.3447 35.4032 24.9986 35.8778L27.1113 37.4183C27.6741 36.6465 28.0412 35.7968 28.0997 34.8813L25.4903 34.7147ZM26.8361 35.5997C25.9749 34.958 24.9496 34.5661 23.8078 34.3834L23.3947 36.9653C24.2004 37.0942 24.8108 37.3513 25.2738 37.6964L26.8361 35.5997ZM22.294 35.6576C22.2863 36.2632 22.0544 36.7926 21.4746 37.2999L23.1964 39.2677C24.2784 38.321 24.8903 37.1108 24.9085 35.6911L22.294 35.6576ZM21.4746 37.2999C20.8756 37.824 20.2253 38.067 19.4729 38.067V40.6817C20.8755 40.6817 22.1336 40.1976 23.1964 39.2677L21.4746 37.2999ZM21.3157 30.8095C21.931 30.5316 22.4425 30.109 22.8346 29.56L20.7069 28.0402C20.5797 28.2183 20.4291 28.3409 20.2395 28.4265L21.3157 30.8095ZM22.8296 29.5669C23.2116 29.0394 23.4871 28.4128 23.4871 27.7096H20.8723C20.8723 27.7121 20.8724 27.7353 20.8533 27.7861C20.8334 27.8393 20.7926 27.9218 20.7119 28.0333L22.8296 29.5669ZM23.4871 27.7096C23.4871 27.0415 23.2438 26.3396 22.5946 25.8708L21.0637 27.9905C20.9974 27.9425 20.9366 27.8701 20.8999 27.7884C20.867 27.7153 20.8723 27.6776 20.8723 27.7096H23.4871ZM22.6318 25.8987C22.1202 25.5008 21.5197 25.3506 20.9334 25.3506V27.9654C21.0069 27.9654 21.0418 27.9746 21.0493 27.9769C21.053 27.978 21.0512 27.9778 21.0457 27.975C21.0402 27.9721 21.0334 27.9679 21.0265 27.9626L22.6318 25.8987ZM20.9334 25.3506C20.3471 25.3506 19.7465 25.5008 19.2349 25.8987L20.8402 27.9626C20.8334 27.9679 20.8266 27.9721 20.821 27.975C20.8156 27.9778 20.8138 27.978 20.8175 27.9769C20.825 27.9746 20.8599 27.9654 20.9334 27.9654V25.3506ZM19.2721 25.8708C18.7019 26.2826 18.3797 26.9022 18.3797 27.6122H20.9944C20.9944 27.6525 20.9848 27.7333 20.9373 27.8255C20.8901 27.9174 20.8315 27.9699 20.803 27.9905L19.2721 25.8708ZM18.3797 27.6122C18.3797 28.1543 18.5946 28.6612 18.8111 29.0594C19.0436 29.487 19.3674 29.9481 19.7567 30.4347L21.7985 28.8013C21.4607 28.3791 21.2393 28.0516 21.1083 27.8105C20.9613 27.5401 20.9944 27.4985 20.9944 27.6122H18.3797ZM19.1029 39.0459C19.9682 39.0459 20.557 38.5168 20.8737 37.9362L18.5783 36.6841C18.5711 36.6973 18.6054 36.6279 18.7127 36.5541C18.8337 36.471 18.9767 36.4312 19.1029 36.4312V39.0459ZM20.8516 37.9752C21.1199 37.5211 21.2865 37.0084 21.2865 36.4533H18.6718C18.6718 36.4694 18.6697 36.5279 18.6005 36.645L20.8516 37.9752ZM21.2865 36.4533C21.2865 36.0485 21.2313 35.643 21.1307 35.2404L18.594 35.8746C18.6491 36.0951 18.6718 36.2869 18.6718 36.4533H21.2865ZM19.6397 34.2692C19.0106 34.378 18.369 34.583 17.8611 34.9906C17.2955 35.4444 16.9776 36.0874 16.9776 36.8233H19.5923C19.5923 36.8355 19.5886 36.8829 19.5598 36.9423C19.5466 36.9695 19.5318 36.9915 19.5186 37.0076C19.5057 37.0234 19.4971 37.0303 19.4975 37.0299C19.5003 37.0276 19.5385 36.9985 19.6395 36.9598C19.74 36.9214 19.8849 36.8803 20.085 36.8457L19.6397 34.2692ZM16.9776 36.8233C16.9776 37.3418 17.1348 37.8455 17.4712 38.2736L19.5272 36.6582C19.5464 36.6827 19.5658 36.7166 19.5788 36.7555C19.5914 36.7935 19.5923 36.819 19.5923 36.8233H16.9776ZM17.5065 38.3167C17.9192 38.7982 18.4879 39.0459 19.1029 39.0459V36.4312C19.1432 36.4312 19.2177 36.4395 19.305 36.4789C19.3934 36.5188 19.4556 36.5729 19.4918 36.6151L17.5065 38.3167ZM28.2905 28.9948L27.0958 29.5258L27.1194 29.5789L27.1477 29.6298L28.2905 28.9948ZM27.9205 28.4885H26.6131V28.9828L26.9402 29.3535L27.9205 28.4885ZM27.9205 28.2159L27.2479 27.0948L26.6131 27.4757V28.2159H27.9205ZM29.1863 27.8069L29.4427 29.0889L29.4563 29.0862L29.4699 29.0832L29.1863 27.8069ZM32.1463 27.7096L33.2674 27.0369L32.9989 26.5895L32.4962 26.4499L32.1463 27.7096ZM31.4063 32.3443L30.1406 32.0167L29.8043 33.3163L31.1123 33.6182L31.4063 32.3443ZM34.0352 31.3901L32.8576 30.8223L32.8533 30.8314L34.0352 31.3901ZM27.4531 27.2033L27.9974 28.392L28.0091 28.3865L27.4531 27.2033ZM27.0052 30.1048L28.3025 29.9427L28.1856 29.0077L27.2616 28.8229L27.0052 30.1048ZM26.6742 32.0912L26.5086 33.388L27.3275 33.4925L27.7739 32.7981L26.6742 32.0912ZM25.0189 31.3122L25.8907 30.3379L25.0189 31.3122ZM26.4794 26.1127L27.0925 27.2674L27.0962 27.2654L26.4794 26.1127ZM36.6253 25.8985L35.9566 27.0219L35.9644 27.0266L35.9723 27.0312L36.6253 25.8985ZM36.8395 32.2664L37.7821 33.1723L37.7821 33.1723L36.8395 32.2664ZM31.1142 33.4738L31.6054 32.2622L30.2145 31.6984L29.8467 33.1534L31.1142 33.4738ZM30.0821 38.7707L30.3825 40.043L31.3044 39.8254L31.3847 38.8815L30.0821 38.7707ZM26.2847 39.0433L24.9816 38.9382L24.8992 39.9595L25.8713 40.2836L26.2847 39.0433ZM27.3752 34.2527L26.1171 33.8972L26.1154 33.9035L27.3752 34.2527ZM29.6952 29.5401C29.6952 29.23 29.6633 28.7739 29.4333 28.3599L27.1477 29.6298C27.1169 29.5744 27.0995 29.5288 27.0901 29.5C27.0807 29.4709 27.0772 29.4526 27.0765 29.4486C27.0756 29.4433 27.0805 29.4699 27.0805 29.5401H29.6952ZM29.4852 28.4639C29.3444 28.1472 29.0992 27.8484 28.9008 27.6235L26.9402 29.3535C27.0208 29.4449 27.0728 29.51 27.1035 29.552C27.1184 29.5724 27.1242 29.5818 27.1239 29.5812C27.1235 29.5807 27.1207 29.576 27.1161 29.5676C27.1116 29.5592 27.1044 29.5452 27.0958 29.5258L29.4852 28.4639ZM29.2279 28.4885V28.2159H26.6131V28.4885H29.2279ZM28.5931 29.3369C28.6527 29.3012 28.8917 29.1991 29.4427 29.0889L28.9299 26.525C28.3125 26.6484 27.7076 26.819 27.2479 27.0948L28.5931 29.3369ZM29.4699 29.0832C29.9915 28.9673 30.4056 28.9196 30.7247 28.9196V26.3048C30.161 26.3048 29.5495 26.387 28.9027 26.5307L29.4699 29.0832ZM30.7247 28.9196C31.0651 28.9196 31.3299 28.9274 31.5263 28.9409C31.7419 28.9556 31.8112 28.9734 31.7964 28.9692L32.4962 26.4499C32.0629 26.3295 31.41 26.3048 30.7247 26.3048V28.9196ZM31.0252 28.3822C30.9995 28.3393 30.9818 28.3022 30.9701 28.2746C30.9584 28.2469 30.9511 28.2252 30.9469 28.2116C30.9391 28.1858 30.9391 28.178 30.9418 28.1956C30.9443 28.212 30.948 28.2427 30.951 28.2905C30.9539 28.3378 30.9558 28.3969 30.9558 28.469H33.5705C33.5705 28.2421 33.5592 28.0131 33.5261 27.798C33.4962 27.6037 33.4337 27.3141 33.2674 27.0369L31.0252 28.3822ZM30.9558 28.469C30.9558 28.4431 30.9557 28.4997 30.921 28.7024C30.8902 28.8822 30.8415 29.1255 30.7724 29.438C30.6345 30.0617 30.4247 30.9192 30.1406 32.0167L32.672 32.6719C32.9591 31.5624 33.1777 30.6705 33.3255 30.0025C33.4594 29.3968 33.5705 28.8291 33.5705 28.469H30.9558ZM31.1123 33.6182C31.5509 33.7194 32.0003 33.7685 32.4579 33.7685V31.1538C32.1884 31.1538 31.9368 31.125 31.7003 31.0704L31.1123 33.6182ZM32.4579 33.7685C33.0432 33.7685 33.6164 33.6184 34.1222 33.275C34.62 32.937 34.9726 32.4662 35.2172 31.9489L32.8533 30.8314C32.7603 31.0281 32.6813 31.0928 32.6533 31.1118C32.6333 31.1254 32.5865 31.1538 32.4579 31.1538V33.7685ZM35.2129 31.9579C35.659 31.0326 35.8684 30.0169 35.8684 28.9364H33.2537C33.2537 29.6735 33.1126 30.2936 32.8576 30.8223L35.2129 31.9579ZM35.8684 28.9364C35.8684 27.817 35.5041 26.7703 34.5988 26.0461C33.7492 25.3664 32.6235 25.1364 31.4452 25.1364V27.7511C32.3442 27.7511 32.7764 27.9366 32.9654 28.0878C33.0986 28.1944 33.2537 28.3941 33.2537 28.9364H35.8684ZM31.4452 25.1364C29.7297 25.1364 28.1961 25.4096 26.8971 26.02L28.0091 28.3865C28.8652 27.9842 29.9931 27.7511 31.4452 27.7511V25.1364ZM26.9089 26.0146C25.6868 26.5741 24.5294 27.518 24.5294 29.0338H27.1442C27.1442 29.0276 27.1354 28.9931 27.2209 28.8962C27.3271 28.7759 27.5552 28.5944 27.9974 28.392L26.9089 26.0146ZM24.5294 29.0338C24.5294 29.656 24.7639 30.2425 25.2455 30.684C25.6835 31.0855 26.2347 31.284 26.7488 31.3868L27.2616 28.8229C27.1379 28.7981 27.0612 28.7714 27.0195 28.7531C26.9784 28.7351 26.9846 28.7311 27.0123 28.7565C27.0438 28.7853 27.0839 28.835 27.1128 28.9028C27.141 28.969 27.1442 29.019 27.1442 29.0338H24.5294ZM25.708 30.267C25.7123 30.3017 25.7173 30.3682 25.7173 30.4748H28.3321C28.3321 30.2959 28.3241 30.1157 28.3025 29.9427L25.708 30.267ZM25.7173 30.4748C25.7173 31.0852 25.6105 31.3281 25.5744 31.3842L27.7739 32.7981C28.2052 32.1272 28.3321 31.2926 28.3321 30.4748H25.7173ZM26.8397 30.7943C26.5125 30.7525 26.2025 30.6169 25.8907 30.3379L24.1472 32.2865C24.822 32.8903 25.6155 33.274 26.5086 33.388L26.8397 30.7943ZM25.8907 30.3379C25.7588 30.2199 25.5863 29.9672 25.5863 29.3259H22.9715C22.9715 30.4502 23.2924 31.5217 24.1472 32.2865L25.8907 30.3379ZM25.5863 29.3259C25.5863 28.5607 25.9413 27.8787 27.0925 27.2674L25.8663 24.958C24.0835 25.9047 22.9715 27.3647 22.9715 29.3259H25.5863ZM27.0962 27.2654C28.3455 26.597 29.9079 26.2322 31.8347 26.2322V23.6175C29.5812 23.6175 27.5734 24.0446 25.8626 24.96L27.0962 27.2654ZM31.8347 26.2322C33.8404 26.2322 35.1607 26.5482 35.9566 27.0219L37.2939 24.7751C35.9087 23.9506 34.0354 23.6175 31.8347 23.6175V26.2322ZM35.9723 27.0312C36.6564 27.4255 36.9732 27.9587 36.9732 28.8196H39.5879C39.5879 27.058 38.8011 25.6438 37.2782 24.7659L35.9723 27.0312ZM36.9732 28.8196C36.9732 29.7556 36.641 30.5862 35.8968 31.3605L37.7821 33.1723C38.9593 31.9474 39.5879 30.48 39.5879 28.8196H36.9732ZM35.8968 31.3605C35.2308 32.0535 34.2879 32.4585 32.9058 32.4585V35.0733C34.8472 35.0733 36.5267 34.4786 37.7821 33.1723L35.8968 31.3605ZM32.9058 32.4585C32.3008 32.4585 31.8828 32.3747 31.6054 32.2622L30.623 34.6854C31.3063 34.9624 32.0827 35.0733 32.9058 35.0733V32.4585ZM29.8467 33.1534C29.2581 35.4815 28.8926 37.3304 28.7794 38.6598L31.3847 38.8815C31.4793 37.7702 31.8018 36.0878 32.3817 33.7942L29.8467 33.1534ZM29.7817 37.4983C28.9638 37.6914 28.0155 37.7943 26.9273 37.7943V40.4091C28.176 40.4091 29.3308 40.2913 30.3825 40.043L29.7817 37.4983ZM26.9273 37.7943C26.7952 37.7943 26.706 37.7901 26.6514 37.7851C26.6248 37.7827 26.6148 37.7808 26.6178 37.7814C26.6185 37.7815 26.6491 37.7867 26.6981 37.803L25.8713 40.2836C26.2135 40.3976 26.6259 40.4091 26.9273 40.4091V37.7943ZM27.5878 39.1484C27.641 38.489 27.9667 37.0133 28.6351 34.6019L26.1154 33.9035C25.4595 36.2698 25.0582 37.9877 24.9816 38.9382L27.5878 39.1484ZM28.6333 34.6083C28.9748 33.3999 29.236 32.3807 29.4129 31.5577C29.5844 30.7597 29.6952 30.0641 29.6952 29.5401H27.0805C27.0805 29.7691 27.0226 30.2355 26.8565 31.0084C26.6958 31.7562 26.4507 32.7169 26.1171 33.8972L28.6333 34.6083Z" fill="url(#paint1_linear_76_7)" mask="url(#path-3-outside-2_76_7)"/>
<defs>
<linearGradient id="paint0_linear_76_7" x1="20.1363" y1="0" x2="20.1363" y2="27" gradientUnits="userSpaceOnUse">
<stop stop-color="#B8B7FF"/>
<stop offset="1" stop-color="#000049"/>
</linearGradient>
<linearGradient id="paint1_linear_76_7" x1="30.2128" y1="42.2755" x2="24.8503" y2="11.046" gradientUnits="userSpaceOnUse">
<stop stop-color="#25238E"/>
<stop offset="1" stop-color="white"/>
</linearGradient>
</defs>
</svg>
